<svg xmlns="http://www.w3.org/2000/svg" width="66.469" height="74.749" viewBox="0 0 66.469 74.749">
  <g id="Group_11" data-name="Group 11" transform="translate(-378.754 -378.072)">
    <g id="Group_10" data-name="Group 10">
      <g id="Group_9" data-name="Group 9">
        <g id="Group_2" data-name="Group 2">
          <path id="Path_2" data-name="Path 2" d="M410.112,440.544a1.357,1.357,0,0,0-1.881.253c-1.112,1.475-2.212,2.964-3.222,4.509-.622.953.127,2.137,1.492,2.132a2.2,2.2,0,0,0,.825-.49c1.115-1.473,2.2-2.972,3.234-4.5A1.378,1.378,0,0,0,410.112,440.544Z" fill="#b1d363"/>
        </g>
        <g id="Group_3" data-name="Group 3">
          <path id="Path_3" data-name="Path 3" d="M406,437.588a1.429,1.429,0,0,0-2.085.393q-1.518,2.06-2.978,4.163a2.864,2.864,0,0,0-.29.706,1.441,1.441,0,0,0,.975,1.529,1.39,1.39,0,0,0,1.7-.585q1.494-2.035,2.944-4.1A1.445,1.445,0,0,0,406,437.588Z" fill="#b1d363"/>
        </g>
        <g id="Group_4" data-name="Group 4">
          <path id="Path_4" data-name="Path 4" d="M402.17,421.506a2.018,2.018,0,0,0-.46-2.83c-.8-.565-1.675-1.024-2.507-1.524a1.1,1.1,0,0,0-.207.178q-4.533,7.637-9.064,15.274c-.2.339-.1.518.208.69.546.306,1.078.635,1.618.951a2.162,2.162,0,0,0,3.388-.873q1.992-3.351,3.971-6.71C400.135,424.944,401.166,423.233,402.17,421.506Z" fill="#b1d363"/>
        </g>
        <g id="Group_5" data-name="Group 5">
          <path id="Path_5" data-name="Path 5" d="M400.218,436.828a1.411,1.411,0,0,0-2.032.346c-.5.645-.973,1.312-1.425,1.991a3.712,3.712,0,0,0-.312.747,1.507,1.507,0,0,0,.946,1.458,1.327,1.327,0,0,0,1.623-.409,25.825,25.825,0,0,0,1.555-2.162A1.374,1.374,0,0,0,400.218,436.828Z" fill="#b1d363"/>
        </g>
        <g id="Group_6" data-name="Group 6">
          <path id="Path_6" data-name="Path 6" d="M411.941,445.192c-.131.054-.532.1-.717.318a13.982,13.982,0,0,0-1.49,2.1,1.329,1.329,0,0,0,.552,1.637,1.4,1.4,0,0,0,1.788-.156,10.553,10.553,0,0,0,1.337-1.866C413.917,446.29,413.206,445.213,411.941,445.192Z" fill="#b1d363"/>
        </g>
        <g id="Group_7" data-name="Group 7">
          <path id="Path_7" data-name="Path 7" d="M434.037,438.5c-4.714-2.806-9.438-5.6-14.235-8.438a4.968,4.968,0,0,1-4.172,3.212,2.383,2.383,0,0,1-2.774-2.406c-.018-1.06.02-2.121-.01-3.18-.047-1.7-.013-3.38,1.22-4.789a2.9,2.9,0,0,0-2.368-.267c-.795.273-1.585.562-2.364.878a5.6,5.6,0,0,1-3.179.42,20.033,20.033,0,0,1-2.4-.764l-6.869,11.6a4.62,4.62,0,0,0,1.006-.112,3.678,3.678,0,0,1,4.366,1.095c.1.122.207.242.311.363a3.762,3.762,0,0,1,6.245,1.966c3.185.213,4.23,1.481,4.041,4.9,2.415.758,3.643,2.922,2.426,5.634a1.212,1.212,0,0,0,.157.129c.661.4,1.319.8,1.985,1.181a1.477,1.477,0,1,0,1.506-2.5,15.217,15.217,0,0,1-1.9-1.176,1.443,1.443,0,0,1-.456-1.151,1.4,1.4,0,0,1,.873-.8c.271-.09.691.121.991.292,1.544.886,3.065,1.814,4.608,2.7a1.458,1.458,0,1,0,1.441-2.521c-1.691-1.017-3.4-2.011-5.086-3.029a1.108,1.108,0,0,1-.385-1.755,1.128,1.128,0,0,1,1.566-.1q3.377,2.019,6.769,4.013c.995.588,1.876.451,2.327-.344.462-.813.164-1.58-.859-2.187-1.2-.714-2.4-1.421-3.6-2.132-1.1-.65-2.2-1.287-3.287-1.958a1.077,1.077,0,0,1-.442-1.493,1.1,1.1,0,0,1,1.563-.387c.15.076.291.17.436.256q4.5,2.666,9.01,5.329a1.488,1.488,0,0,0,2.148-.431A1.444,1.444,0,0,0,434.037,438.5Z" fill="#b1d363"/>
        </g>
        <g id="Group_8" data-name="Group 8">
          <path id="Path_8" data-name="Path 8" d="M431.063,418.428a2.088,2.088,0,0,0-.794,3.136c.394.689.827,1.357,1.2,2.059a1.051,1.051,0,0,1-.426,1.434,1.032,1.032,0,0,1-1.413-.3,4.126,4.126,0,0,1-.452-.736c-.17-.332-.367-.382-.751-.3a5.892,5.892,0,0,1-2.2.208,22.012,22.012,0,0,1-3.422-1.064,3.707,3.707,0,0,0-2.39-.2c-1.016.29-2.048.522-3.069.8a2.692,2.692,0,0,0-2.272,2.906c-.02,1.06,0,2.121,0,3.181,0,.493,0,.986,0,1.468a2.41,2.41,0,0,0,2.484-1.423,5.843,5.843,0,0,0,.278-1.33,1.1,1.1,0,0,1,1.731-.9c.277.145.54.316.809.476q6.678,3.953,13.362,7.9a1.042,1.042,0,0,0,.763.169,8.423,8.423,0,0,0,1.251-.766c-.323-.549-.626-1.064-.93-1.579q-1.3-2.205-2.611-4.41a.976.976,0,0,1,.108-1.372,1.8,1.8,0,0,1,1.238-.237c.255.04.5.423.666.7,1.071,1.771,2.112,3.559,3.176,5.334a2.008,2.008,0,0,0,2.64.981c.9-.431,1.751-.987,2.693-1.529l-9.434-15.922C432.5,417.574,431.778,417.993,431.063,418.428Z" fill="#b1d363"/>
        </g>
      </g>
    </g>
    <path id="Path_9" data-name="Path 9" d="M418.188,378.414a7.459,7.459,0,0,1,3.29,2.236q4.521,4.58,9.1,9.1a5.25,5.25,0,0,1,1.652,4c-.041,5.856-.016,11.712-.017,17.568a3.6,3.6,0,0,1-.02.721,1.029,1.029,0,0,1-1.077.883,1.009,1.009,0,0,1-1.054-.9,5.121,5.121,0,0,1-.021-.794q0-8.64,0-17.279v-.95c-.381,0-.686,0-.99,0-2.191-.026-4.4.109-6.569-.12a5.413,5.413,0,0,1-4.845-5.555c-.021-1.952,0-3.9-.005-5.856v-.872h-.847q-15.872,0-31.744,0a3.42,3.42,0,0,0-3.747,3.776q0,28.375,0,56.753a3.393,3.393,0,0,0,3.758,3.752c3.447.009,6.894,0,10.341.005a4.279,4.279,0,0,1,.863.056.968.968,0,0,1,.819.962,1,1,0,0,1-.734,1.107,2.609,2.609,0,0,1-.782.084q-5.279.008-10.557,0a5.568,5.568,0,0,1-5.9-5.878q-.014-28.449,0-56.9a5.516,5.516,0,0,1,4.359-5.771c.062-.019.11-.083.165-.126Zm10,12.339-8.293-8.291c0,1.7-.049,3.478.014,5.247a3.185,3.185,0,0,0,3.1,3.026c1.227.044,2.457.016,3.685.018C427.21,390.754,427.726,390.753,428.183,390.753Z" fill="#2c3179" stroke="#2c3179" stroke-miterlimit="10" stroke-width="0.684"/>
    <path id="Path_10" data-name="Path 10" d="M444.351,431.445q-1.761-2.984-3.534-5.96-2.706-4.563-5.413-9.127a2.333,2.333,0,0,0-3.112-1.173,17.228,17.228,0,0,0-3.066,1.884,4.281,4.281,0,0,0-1.3,1.925,12.648,12.648,0,0,0-.279,2.705,7.419,7.419,0,0,1-1.7-.026,13.421,13.421,0,0,1-2.23-.811,5.616,5.616,0,0,0-3.732-.352c-1.045.278-2.1.514-3.138.817a1.47,1.47,0,0,1-1.285-.149,5.642,5.642,0,0,0-5.453-.35c-.639.277-1.3.512-1.948.757a3.411,3.411,0,0,1-2.858-.213.94.94,0,0,1-.585-1,4.026,4.026,0,0,0-2.005-3.683q-1.125-.72-2.295-1.366a2.358,2.358,0,0,0-3.317.88q-4.6,7.721-9.161,15.462a2.353,2.353,0,0,0,.894,3.416c.634.392,1.283.76,1.923,1.144a4.312,4.312,0,0,0,4.4.229,1.975,1.975,0,0,1,.654-.071l.08.238c-1.291,1.51-2.246,3.12-1.193,5.119a3.581,3.581,0,0,0,3.748,1.923,3.777,3.777,0,0,0,4.145,3.023,3.83,3.83,0,0,0,5.108,2.75,3.675,3.675,0,0,0,2.8,2.224,3.836,3.836,0,0,0,3.44-1.229c.906.536,1.761,1.078,2.648,1.56a3.657,3.657,0,0,0,5.348-2.278c.036-.126.087-.248.139-.393a3.756,3.756,0,0,0,5.5-2.892c2.309.29,3.467-.513,4.581-3.137a3.6,3.6,0,0,0,4.205-1.374,3.646,3.646,0,0,0-.1-4.428,2.263,2.263,0,0,1,2.307-.635,3.394,3.394,0,0,0,2.708-.438c.719-.391,1.419-.815,2.121-1.234A2.452,2.452,0,0,0,444.351,431.445Zm-49.205,1.927a2.162,2.162,0,0,1-3.388.873c-.54-.316-1.072-.645-1.618-.951-.307-.172-.41-.351-.208-.69q4.537-7.633,9.064-15.274a1.1,1.1,0,0,1,.207-.178c.832.5,1.706.959,2.507,1.524a2.018,2.018,0,0,1,.46,2.83c-1,1.727-2.035,3.438-3.053,5.156Q397.131,430.017,395.146,433.372Zm3.872,7.589a1.327,1.327,0,0,1-1.623.409,1.507,1.507,0,0,1-.946-1.458,3.712,3.712,0,0,1,.312-.747c.452-.679.926-1.346,1.425-1.991a1.411,1.411,0,0,1,2.032-.346,1.374,1.374,0,0,1,.355,1.971A25.825,25.825,0,0,1,399.018,440.961Zm4.3,2.833a1.39,1.39,0,0,1-1.7.585,1.441,1.441,0,0,1-.975-1.529,2.864,2.864,0,0,1,.29-.706q1.465-2.1,2.978-4.163a1.429,1.429,0,0,1,2.085-.393,1.445,1.445,0,0,1,.266,2.106Q404.819,441.762,403.321,443.794Zm4,3.154a2.2,2.2,0,0,1-.825.49c-1.365.005-2.114-1.179-1.492-2.132,1.01-1.545,2.11-3.034,3.222-4.509a1.357,1.357,0,0,1,1.881-.253,1.378,1.378,0,0,1,.448,1.9C409.525,443.976,408.441,445.475,407.326,446.948Zm6.085.279a10.553,10.553,0,0,1-1.337,1.866,1.4,1.4,0,0,1-1.788.156,1.329,1.329,0,0,1-.552-1.637,13.982,13.982,0,0,1,1.49-2.1c.185-.222.586-.264.717-.318C413.206,445.213,413.917,446.29,413.411,447.227Zm21.232-6.684a1.488,1.488,0,0,1-2.148.431q-4.512-2.652-9.01-5.329c-.145-.086-.286-.18-.436-.256a1.1,1.1,0,0,0-1.563.387,1.077,1.077,0,0,0,.442,1.493c1.085.671,2.19,1.308,3.287,1.958,1.2.711,2.4,1.418,3.6,2.132,1.023.607,1.321,1.374.859,2.187-.451.8-1.332.932-2.327.344q-3.389-2-6.769-4.013a1.128,1.128,0,0,0-1.566.1,1.108,1.108,0,0,0,.385,1.755c1.69,1.018,3.395,2.012,5.086,3.029a1.458,1.458,0,1,1-1.441,2.521c-1.543-.889-3.064-1.817-4.608-2.7-.3-.171-.72-.382-.991-.292a1.4,1.4,0,0,0-.873.8,1.443,1.443,0,0,0,.456,1.151,15.217,15.217,0,0,0,1.9,1.176,1.477,1.477,0,1,1-1.506,2.5c-.666-.385-1.324-.785-1.985-1.181a1.212,1.212,0,0,1-.157-.129c1.217-2.712-.011-4.876-2.426-5.634.189-3.423-.856-4.691-4.041-4.9a3.762,3.762,0,0,0-6.245-1.966c-.1-.121-.208-.241-.311-.363a3.678,3.678,0,0,0-4.366-1.095,4.62,4.62,0,0,1-1.006.112l6.869-11.6a20.033,20.033,0,0,0,2.4.764,5.6,5.6,0,0,0,3.179-.42c.779-.316,1.569-.6,2.364-.878a2.9,2.9,0,0,1,2.368.267c-1.233,1.409-1.267,3.084-1.22,4.789.03,1.059-.008,2.12.01,3.18a2.383,2.383,0,0,0,2.774,2.406,4.968,4.968,0,0,0,4.172-3.212c4.8,2.841,9.521,5.632,14.235,8.438A1.444,1.444,0,0,1,434.643,440.543Zm5.389-5.984a2.008,2.008,0,0,1-2.64-.981c-1.064-1.775-2.105-3.563-3.176-5.334-.168-.278-.411-.661-.666-.7a1.8,1.8,0,0,0-1.238.237.976.976,0,0,0-.108,1.372q1.307,2.205,2.611,4.41c.3.515.607,1.03.93,1.579a8.423,8.423,0,0,1-1.251.766,1.042,1.042,0,0,1-.763-.169q-6.688-3.936-13.362-7.9c-.269-.16-.532-.331-.809-.476a1.1,1.1,0,0,0-1.731.9,5.843,5.843,0,0,1-.278,1.33,2.41,2.41,0,0,1-2.484,1.423c0-.482,0-.975,0-1.468,0-1.06-.016-2.121,0-3.181a2.692,2.692,0,0,1,2.272-2.906c1.021-.276,2.053-.508,3.069-.8a3.707,3.707,0,0,1,2.39.2,22.012,22.012,0,0,0,3.422,1.064,5.892,5.892,0,0,0,2.2-.208c.384-.079.581-.029.751.3a4.126,4.126,0,0,0,.452.736,1.032,1.032,0,0,0,1.413.3,1.051,1.051,0,0,0,.426-1.434c-.369-.7-.8-1.37-1.2-2.059a2.088,2.088,0,0,1,.794-3.136c.715-.435,1.44-.854,2.228-1.32l9.434,15.922C441.783,433.572,440.937,434.128,440.032,434.559Z" fill="#2c3179" stroke="#2c3179" stroke-miterlimit="10" stroke-width="0.684"/>
    <path id="Path_11" data-name="Path 11" d="M405.634,407.207H388.569c-.241,0-.483.008-.723-.011a1.032,1.032,0,0,1-1.017-1.024,1.078,1.078,0,0,1,.987-1.134,4.639,4.639,0,0,1,.578-.011h34.564a3.166,3.166,0,0,1,.577.016,1.036,1.036,0,0,1,.94,1.1,1,1,0,0,1-.981,1.049c-.239.022-.481.013-.722.013Z" fill="#2c3179" stroke="#2c3179" stroke-miterlimit="10" stroke-width="0.684"/>
    <path id="Path_12" data-name="Path 12" d="M405.676,398.343h17.065c.241,0,.483,0,.723.015a1.028,1.028,0,0,1,1.017,1.023,1.094,1.094,0,0,1-.987,1.14,3.874,3.874,0,0,1-.506.01q-17.318,0-34.637,0a2.918,2.918,0,0,1-.577-.017,1.042,1.042,0,0,1-.94-1.1,1,1,0,0,1,.982-1.051,7.8,7.8,0,0,1,.795-.019Z" fill="#2c3179" stroke="#2c3179" stroke-miterlimit="10" stroke-width="0.684"/>
    <path id="Path_13" data-name="Path 13" d="M396.727,392.992c-2.818,0-5.637.014-8.455-.016a1.885,1.885,0,0,1-1.117-.362,1.033,1.033,0,0,1,.39-1.747,2.907,2.907,0,0,1,.924-.109q8.312-.009,16.622,0c.145,0,.29-.006.434.005.773.057,1.243.5,1.226,1.144a1.134,1.134,0,0,1-1.279,1.084C402.557,393,399.642,392.992,396.727,392.992Z" fill="#2c3179" stroke="#2c3179" stroke-miterlimit="10" stroke-width="0.684"/>
  </g>
</svg>
