<svg xmlns="http://www.w3.org/2000/svg" xmlns:xlink="http://www.w3.org/1999/xlink" width="525.656" height="491.851" viewBox="0 0 525.656 491.851">
  <defs>
    <linearGradient id="linear-gradient" x1="0.5" x2="0.5" y2="1" gradientUnits="objectBoundingBox">
      <stop offset="0" stop-color="#41e6d3"/>
      <stop offset="0" stop-color="#182244"/>
      <stop offset="0.788" stop-color="#000757"/>
      <stop offset="1" stop-color="#4e54b5"/>
    </linearGradient>
    <linearGradient id="linear-gradient-2" x1="0.5" x2="0.5" y2="1" gradientUnits="objectBoundingBox">
      <stop offset="0" stop-color="#15b7a5"/>
      <stop offset="1" stop-color="#020869"/>
    </linearGradient>
    <linearGradient id="linear-gradient-3" x1="0.5" x2="0.5" y2="1" gradientUnits="objectBoundingBox">
      <stop offset="0" stop-color="#03f5d8"/>
      <stop offset="1" stop-color="#3b577b"/>
    </linearGradient>
  </defs>
  <g id="Group_6" data-name="Group 6" transform="translate(-306 -1043.807)">
    <path id="Union_3" data-name="Union 3" d="M0,0H187.215a50,50,0,0,1,50,50V98.261H0Z" transform="translate(594.441 1437.397)" fill="url(#linear-gradient)"/>
    <path id="Union_2" data-name="Union 2" d="M178.555,98.373H0V0H178.987V.362l58.228,48.824L178.987,98.01v.362Z" transform="translate(448.709 1241.199)" fill="url(#linear-gradient-2)"/>
    <path id="Union_4" data-name="Union 4" d="M160.87,98.373H47a47,47,0,0,1-47-47V0H161.259V.251l75.956,48.936L161.259,98.122v.251Z" transform="translate(306 1043.807)" fill="url(#linear-gradient-3)"/>
    <text id="Get_Funded" data-name="Get Funded" transform="translate(713.048 1506.527)" fill="#fff" font-size="16" font-family="OpenSans-Semibold, Open Sans" font-weight="600"><tspan x="-44.633" y="0">Get Funded</tspan></text>
    <g id="Group_5" data-name="Group 5" transform="translate(386.774 1059.878)">
      <text id="Apply" transform="translate(20.226 54.122)" fill="#fff" font-size="16" font-family="OpenSans-Semibold, Open Sans" font-weight="600"><tspan x="-21.777" y="0">Apply</tspan></text>
      <path id="Path_121" data-name="Path 121" d="M381.676-258.854a17.5,17.5,0,0,0-9.976,16.137c0,12.637,13.358,21.089,24.433,15.369,11.582-5.977,12.935-21.26,2.621-29.542-2.79-2.22-4.058-2.647-8.877-2.818C386.326-259.878,383.282-259.537,381.676-258.854Zm12.766,3.671c8.454,4.1,10.145,15.625,3.213,22.285-5.326,5.038-12.935,4.781-18.177-.512C368.91-244.082,381-261.586,394.442-255.182Z" transform="translate(-368.029 259.751)" fill="#fff"/>
      <path id="Path_122" data-name="Path 122" d="M391.424-243.806c-1.61,2.248-3.219,4.164-3.526,4.164a8.261,8.261,0,0,1-2.529-1.665c-1.993-1.749-4.369-1.5-4.369.416,0,1.582,6.055,7.245,7.512,6.912,1.533-.333,9.5-11.408,9.121-12.657a2.346,2.346,0,0,0-1.763-1.166C394.874-247.969,393.494-246.72,391.424-243.806Z" transform="translate(-368.641 257.582)" fill="#fff"/>
    </g>
    <g id="Group_3" data-name="Group 3" transform="translate(481.633 1248.589)">
      <text id="Review_Customise_your_Offers" data-name="Review &amp; Customise 
your Offers" transform="translate(70.867 56.625)" fill="#fff" font-size="15" font-family="OpenSans-Semibold, Open Sans" font-weight="600"><tspan x="-74.993" y="0">Review &amp; Customise </tspan><tspan x="-41.1" y="20">your Offers</tspan></text>
      <g id="Group_2" data-name="Group 2" transform="translate(58.882 3)">
        <path id="Path_238" data-name="Path 238" d="M187.833-285.6a3.635,3.635,0,0,1-1.981,1.4c-.713,0-.832.232-.713,1.721l.119,1.767,4.873.139,4.833.14v-1.907c0-1.674-.119-1.86-.951-1.86a1.17,1.17,0,0,1-1.228-.977,3.226,3.226,0,0,0-3.05-1.814A3.4,3.4,0,0,0,187.833-285.6Zm3.09-.093c.079.326-.238.558-.673.558-.832,0-1.07-.512-.555-1.116C190.051-286.674,190.725-286.349,190.923-285.7Z" transform="translate(-179.513 287)" fill="#fff"/>
        <path id="Path_240" data-name="Path 240" d="M171.634-278.349c-.555.519-.634,2.038-.634,12.6,0,10.414.079,12.082.634,12.564.515.482,1.743.593,7.052.593,5.626,0,6.616.074,7.963.741a4.87,4.87,0,0,0,4.437.334,5.514,5.514,0,0,0,3.684-6.634,4.427,4.427,0,0,0-.753-1.668c-.2-.111-1.387,1.223-2.654,2.965a16.721,16.721,0,0,1-2.615,3.15,8.291,8.291,0,0,1-1.505-2.335l-1.228-2.3,1.347,1.371a8.62,8.62,0,0,0,1.545,1.408,34.417,34.417,0,0,0,2.456-2.594c1.783-2.038,2.139-2.631,1.664-2.817-.555-.185-.634-1.334-.634-8.487,0-7.6-.04-8.265-.753-8.857a3.287,3.287,0,0,0-2.456-.519c-2.417.148-2.456.964-.079,1.112l1.9.111.119,7.783.079,7.783h-2.179c-1.189,0-2.179-.111-2.179-.3a23.463,23.463,0,0,0-4.952-.259c-6.457,0-6.735.7-.277.815l4.635.074-4.358.111c-5.7.185-6.537.852-1.03.852h4.041l-.832,1.112c-.792,1.038-.99,1.075-4.08,1.223l-3.249.111,3.288.074c1.822.037,3.249.222,3.249.445s-1.387.408-3.249.445l-3.288.074,3.13.185,3.13.222.475,1.594.515,1.594-5.982-.111-6.022-.111v-23.719l2.1-.111c2.615-.148,2.615-.964,0-1.112A3.326,3.326,0,0,0,171.634-278.349Zm19.531,16.9c.673.222,1.228.593,1.228.815a8.384,8.384,0,0,1-1.783,2.3l-1.743,1.853-.911-.964a9.118,9.118,0,0,0-2.02-1.631c-.911-.556-.99-.741-.594-1.223a6.94,6.94,0,0,1,3.724-1.557A8.767,8.767,0,0,1,191.165-261.45Zm-5.229,4.484a24.7,24.7,0,0,1,1.7,3c.634,1.631,1.545,1.112,3.922-2.075,2.3-3.15,2.932-3.3,2.892-.7-.079,3.854-3.724,6.078-7.408,4.558-2.654-1.112-4.041-3.854-3.13-6.115C184.311-259.226,184.628-259,185.935-256.965Z" transform="translate(-171 282.64)" fill="#fff"/>
        <path id="Path_242" data-name="Path 242" d="M186.484-265.535c-.158.279,1.505.465,4.714.465,3.05,0,4.992-.186,4.992-.465s-1.822-.465-4.714-.465C188.742-266,186.643-265.814,186.484-265.535Z" transform="translate(-180.344 273.934)" fill="#fff"/>
        <path id="Path_243" data-name="Path 243" d="M186.487-262.535c-.158.326,1.9.465,5.9.465,3.843,0,6.18-.186,6.18-.465s-2.219-.465-5.9-.465C189.141-263,186.646-262.814,186.487-262.535Z" transform="translate(-180.347 272.067)" fill="#fff"/>
        <path id="Path_248" data-name="Path 248" d="M191.313-254.461a47.545,47.545,0,0,0,5.15,0c1.347-.093.158-.139-2.694-.139C190.957-254.6,189.847-254.553,191.313-254.461Z" transform="translate(-182.875 266.893)" fill="#fff"/>
        <path id="Path_249" data-name="Path 249" d="M192.575-251.461c1.822.093,4.675.093,6.339,0,1.664-.047.2-.139-3.288-.139S190.753-251.507,192.575-251.461Z" transform="translate(-183.543 265.032)" fill="#fff"/>
        <path id="Path_251" data-name="Path 251" d="M186-244.535c0,.279,1.9.465,4.952.465s4.952-.186,4.952-.465S194-245,190.952-245,186-244.814,186-244.535Z" transform="translate(-180.058 260.867)" fill="#fff"/>
        <path id="Path_252" data-name="Path 252" d="M186-241.535c0,.279,2.3.465,6.141.465s6.141-.186,6.141-.465-2.3-.465-6.141-.465S186-241.814,186-241.535Z" transform="translate(-180.058 259)" fill="#fff"/>
      </g>
    </g>
    <g id="Group_4" data-name="Group 4" transform="translate(704.735 1457.538)">
      <path id="Path_239" data-name="Path 239" d="M718.285-275.313a4.507,4.507,0,0,1-.418,2.871c-.955,2.241-.3,4.762,1.313,4.762.477,0,.776.21.6.56a13.806,13.806,0,0,0,1.193,4.342c1.73,4.762,1.79,7.7.239,9.945l-.566.981-.388,1.05c.3.35-.776.42-6.921.63-5.907.21-7.637-.91-7.637-4.762,0-3.151,1.611-7.493,4.415-11.765,2.088-3.151,2.088-3.292,1.253-5.673-1.134-3.081-1.134-2.941.477-3.712C713.512-276.993,717.688-276.433,718.285-275.313Z" transform="translate(-705.696 276.537)" fill="#fff"/>
    </g>
    <line id="Line_1" data-name="Line 1" x2="12.77" transform="translate(552.248 1094.187)" fill="none" stroke="#707070" stroke-width="4"/>
    <line id="Line_17" data-name="Line 17" x2="12.77" transform="translate(697.345 1290.385)" fill="none" stroke="#707070" stroke-width="4"/>
    <line id="Line_8" data-name="Line 8" y1="0.797" x2="11.26" transform="matrix(0.875, -0.485, 0.485, 0.875, 557.717, 1137.494)" fill="none" stroke="#707070" stroke-width="4"/>
    <line id="Line_20" data-name="Line 20" y1="0.797" x2="11.26" transform="matrix(0.875, -0.485, 0.485, 0.875, 702.814, 1333.693)" fill="none" stroke="#707070" stroke-width="4"/>
    <line id="Line_12" data-name="Line 12" y1="0.941" x2="13.291" transform="matrix(0.875, -0.485, 0.485, 0.875, 462.926, 1201.819)" fill="none" stroke="#707070" stroke-width="4"/>
    <line id="Line_24" data-name="Line 24" y1="0.941" x2="13.291" transform="matrix(0.875, -0.485, 0.485, 0.875, 608.023, 1398.018)" fill="none" stroke="#707070" stroke-width="4"/>
    <line id="Line_16" data-name="Line 16" y1="0.941" x2="13.291" transform="matrix(0.875, -0.485, 0.485, 0.875, 436.627, 1220.972)" fill="none" stroke="#707070" stroke-width="4"/>
    <line id="Line_25" data-name="Line 25" y1="0.941" x2="13.291" transform="matrix(0.875, -0.485, 0.485, 0.875, 581.725, 1417.17)" fill="none" stroke="#707070" stroke-width="4"/>
    <line id="Line_2" data-name="Line 2" x2="12.77" transform="translate(575.659 1094.187)" fill="none" stroke="#707070" stroke-width="4"/>
    <line id="Line_18" data-name="Line 18" x2="12.77" transform="translate(720.756 1290.385)" fill="none" stroke="#707070" stroke-width="4"/>
    <line id="Line_7" data-name="Line 7" y1="0.797" x2="11.26" transform="matrix(0.875, -0.485, 0.485, 0.875, 581.626, 1121.361)" fill="none" stroke="#707070" stroke-width="4"/>
    <line id="Line_19" data-name="Line 19" y1="0.797" x2="11.26" transform="matrix(0.875, -0.485, 0.485, 0.875, 726.724, 1317.56)" fill="none" stroke="#707070" stroke-width="4"/>
    <line id="Line_11" data-name="Line 11" y1="0.941" x2="13.291" transform="matrix(0.875, -0.485, 0.485, 0.875, 491.15, 1182.775)" fill="none" stroke="#707070" stroke-width="4"/>
    <line id="Line_23" data-name="Line 23" y1="0.941" x2="13.291" transform="matrix(0.875, -0.485, 0.485, 0.875, 636.247, 1378.974)" fill="none" stroke="#707070" stroke-width="4"/>
    <line id="Line_10" data-name="Line 10" y1="0.797" x2="11.26" transform="matrix(0.875, -0.485, 0.485, 0.875, 512.634, 1167.76)" fill="none" stroke="#707070" stroke-width="4"/>
    <line id="Line_22" data-name="Line 22" y1="0.797" x2="11.26" transform="matrix(0.875, -0.485, 0.485, 0.875, 657.732, 1363.959)" fill="none" stroke="#707070" stroke-width="4"/>
    <line id="Line_9" data-name="Line 9" y1="0.797" x2="11.26" transform="matrix(0.875, -0.485, 0.485, 0.875, 536.544, 1151.627)" fill="none" stroke="#707070" stroke-width="4"/>
    <line id="Line_21" data-name="Line 21" y1="0.797" x2="11.26" transform="matrix(0.875, -0.485, 0.485, 0.875, 681.641, 1347.826)" fill="none" stroke="#707070" stroke-width="4"/>
    <path id="Path_253" data-name="Path 253" d="M0,.813a5.611,5.611,0,0,1,6.367.353c3.509,2.4,2.158,3.293,2.158,3.293" transform="matrix(0.766, 0.643, -0.643, 0.766, 599.738, 1094.187)" fill="none" stroke="#707070" stroke-width="4"/>
    <path id="Path_255" data-name="Path 255" d="M0,.813a5.611,5.611,0,0,1,6.367.353c3.509,2.4,2.158,3.293,2.158,3.293" transform="matrix(0.766, 0.643, -0.643, 0.766, 744.835, 1290.385)" fill="none" stroke="#707070" stroke-width="4"/>
    <path id="Path_254" data-name="Path 254" d="M0,1.507S6.118-2.531,13.846,2.613s4.83,6.9,4.83,6.9" transform="translate(433.502 1251.353) rotate(-135)" fill="none" stroke="#707070" stroke-width="4"/>
    <path id="Path_256" data-name="Path 256" d="M0,1.507S6.118-2.531,13.846,2.613s4.83,6.9,4.83,6.9" transform="translate(578.599 1447.552) rotate(-135)" fill="none" stroke="#707070" stroke-width="4"/>
  </g>
</svg>
