<svg xmlns="http://www.w3.org/2000/svg" width="56.101" height="59.836" viewBox="0 0 56.101 59.836">
  <g id="Group_12" data-name="Group 12" transform="translate(-925.981 -353.897)">
    <circle id="Ellipse_5" data-name="Ellipse 5" cx="16.198" cy="16.198" r="16.198" transform="translate(941.563 355.909)" fill="#b1d363"/>
    <path id="Path_14" data-name="Path 14" d="M948.477,387.637a17.919,17.919,0,0,0,13.826,2.134,18.2,18.2,0,0,0,13.347-20.818c-1.357-7.265-5.7-12.1-12.9-14.372a17.1,17.1,0,0,0-2.269-.493c-.354-.06-.706-.121-1.056-.191h-3.115l-.411.109c-.481.116-.967.217-1.454.317a18.743,18.743,0,0,0-3,.8,18.241,18.241,0,0,0-2.964,32.518Zm-1.215-26.447a14.968,14.968,0,0,1,10.6-4.418h.08a15.336,15.336,0,0,1-.034,30.67h-.037a15.342,15.342,0,0,1-10.611-26.252Z" fill="#2c3179"/>
    <path id="Path_15" data-name="Path 15" d="M981.213,396.345a8.2,8.2,0,0,0-11.121.4c-1.039,1.023-2.067,2.053-3.095,3.084q-.918.921-1.838,1.838l-.075.078a.935.935,0,0,1-.6.369c-.574.026-1.148.023-1.753.019l-1.253,0,.674-1.105a8.1,8.1,0,0,0,1.215-4.079,1.477,1.477,0,0,0-1.706-1.74c-.754-.005-1.5-.005-2.251,0-1,0-2,0-3.008-.008a10.474,10.474,0,0,1-1.7-.143,18.279,18.279,0,0,1-5.156-1.99,15.742,15.742,0,0,0-10.688-1.482c-1.583.322-3.36.8-4.388,2.408a11.933,11.933,0,0,0-.878,1.8c-.131.315-.269.64-.42.972l-.09.194h-1.6c-1.205,0-2.466,0-3.724,0-1.283,0-1.783.507-1.784,1.8v13.173c0,1.305.48,1.79,1.772,1.791h18.961q8.3,0,16.6.01h.017a7.771,7.771,0,0,0,5.776-2.392q4.247-4.269,8.509-8.519l3.727-3.724a1.978,1.978,0,0,0,.737-1.395A2.036,2.036,0,0,0,981.213,396.345Zm-47.792,14.469H928.9V399.922h4.519Zm44.669-12.346c-.065.039-.136.076-.205.113a1.277,1.277,0,0,0-.289.182l-1.6,1.6q-4.408,4.389-8.788,8.8a5.454,5.454,0,0,1-4.066,1.7h-.019q-9.654-.021-19.31-.011l-7.45,0-.027-.5c-.009-.15-.018-.29-.018-.43v-12.46a2.556,2.556,0,0,1,2.124-2.793,12.59,12.59,0,0,1,9.193.7c1.321.648,2.721,1.271,4.283,1.9a11.767,11.767,0,0,0,4.652.841c.729-.013,1.458-.011,2.214-.008l1.55,0-.188.461a5.4,5.4,0,0,1-3.745,3.387,7.839,7.839,0,0,1-1.954.175c-1.556.007-3.107,0-4.659,0q-1.744,0-3.492,0a1.5,1.5,0,0,0-1.629,1.219,1.472,1.472,0,0,0,.3,1.16,1.585,1.585,0,0,0,1.18.533c.506.019,1.015.017,1.517.018h4.96q6.086,0,12.172.017h.017a2.325,2.325,0,0,0,1.789-.743c1.2-1.228,2.421-2.441,3.639-3.655l1.786-1.783a5.273,5.273,0,0,1,5.178-1.469,3.592,3.592,0,0,1,.5.164l.3.11.388.583Z" fill="#2c3179"/>
    <path id="Path_16" data-name="Path 16" d="M953.344,379.346c.566.32,1.162.586,1.792.869.29.129.583.261.881.4l.167.08.022.184c.136,1.129.656,1.649,1.5,1.647.638-.014,1.308-.264,1.445-2l.016-.2.424-.18a5.386,5.386,0,0,0,3.379-4.982c-.043-2.125-1.247-3.66-3.579-4.561-.735-.284-1.461-.614-2.163-.936l-.547-.249a1.192,1.192,0,0,1-.791-1.384A1.528,1.528,0,0,1,957,366.693a3.006,3.006,0,0,1,2.576.408,1.475,1.475,0,0,0,1.134.216,1.4,1.4,0,0,0,.887-.63,1.417,1.417,0,0,0-.441-1.982,7.092,7.092,0,0,0-1.347-.685.97.97,0,0,1-.713-.941,1.405,1.405,0,0,0-1.454-1.281,1.363,1.363,0,0,0-1.385,1.34,1.034,1.034,0,0,1-.706,1.016,4.365,4.365,0,0,0-2.579,3.876,3.725,3.725,0,0,0,1.847,3.636,12.094,12.094,0,0,0,1.565.843c.5.222,1.01.418,1.52.614.293.112.584.225.876.342a1.764,1.764,0,0,1,1.269,1.773,2.306,2.306,0,0,1-2.034,2.316,4.511,4.511,0,0,1-3.158-.646,1.637,1.637,0,0,0-.9-.286,1.365,1.365,0,0,0-.3.033,1.4,1.4,0,0,0-.892.669,1.419,1.419,0,0,0-.173,1.1A1.527,1.527,0,0,0,953.344,379.346Z" fill="#2c3179"/>
  </g>
</svg>
