<svg xmlns="http://www.w3.org/2000/svg" xmlns:xlink="http://www.w3.org/1999/xlink" width="935.25" height="118.135" viewBox="0 0 935.25 118.135">
  <defs>
    <linearGradient id="linear-gradient" x1="0.5" x2="0.5" y2="1" gradientUnits="objectBoundingBox">
      <stop offset="0" stop-color="#41e6d3"/>
      <stop offset="0" stop-color="#182244"/>
      <stop offset="0.788" stop-color="#000757"/>
      <stop offset="1" stop-color="#4e54b5"/>
    </linearGradient>
    <linearGradient id="linear-gradient-2" x1="0.5" x2="0.5" y2="1" gradientUnits="objectBoundingBox">
      <stop offset="0" stop-color="#15b7a5"/>
      <stop offset="1" stop-color="#020869"/>
    </linearGradient>
    <linearGradient id="linear-gradient-3" x1="0.5" x2="0.5" y2="1" gradientUnits="objectBoundingBox">
      <stop offset="0" stop-color="#03f5d8"/>
      <stop offset="1" stop-color="#3b577b"/>
    </linearGradient>
  </defs>
  <g id="Group_1" data-name="Group 1" transform="translate(-389.75 -1136.134)">
    <path id="Union_3" data-name="Union 3" d="M0,0H383a50,50,0,0,1,50,50v68H0Z" transform="translate(892 1136.134)" fill="url(#linear-gradient)"/>
    <path id="Union_2" data-name="Union 2" d="M382.918,118.135H0V0H383.845V.435L508.717,59.068,383.845,117.7v.435Z" transform="translate(579.75 1136.134)" fill="url(#linear-gradient-2)"/>
    <path id="Union_4" data-name="Union 4" d="M226.761,118.135H47a47,47,0,0,1-47-47V0H227.31V.3L334.377,59.068,227.31,117.834v.3Z" transform="translate(389.75 1136.134)" fill="url(#linear-gradient-3)"/>
    <text id="Get_Funded" data-name="Get Funded" transform="translate(1198 1226.134)" fill="#fff" font-size="18" font-family="OpenSans-Semibold, Open Sans" font-weight="600"><tspan x="-50.212" y="0">Get Funded</tspan></text>
    <g id="Group_5" data-name="Group 5" transform="translate(24.062 0)">
      <text id="Apply" transform="translate(510.689 1226.134)" fill="#fff" font-size="18" font-family="OpenSans-Semibold, Open Sans" font-weight="600"><tspan x="-24.5" y="0">Apply</tspan></text>
      <path id="Path_121" data-name="Path 121" d="M383.5-258.7a20.478,20.478,0,0,0-11.8,18.9c0,14.8,15.8,24.7,28.9,18,13.7-7,15.3-24.9,3.1-34.6-3.3-2.6-4.8-3.1-10.5-3.3C389-259.9,385.4-259.5,383.5-258.7Zm15.1,4.3c10,4.8,12,18.3,3.8,26.1-6.3,5.9-15.3,5.6-21.5-.6C368.4-241.4,382.7-261.9,398.6-254.4Z" transform="translate(118.989 1415.185)" fill="#fff"/>
      <path id="Path_122" data-name="Path 122" d="M394.6-243c-2.1,2.7-4.2,5-4.6,5a10.941,10.941,0,0,1-3.3-2c-2.6-2.1-5.7-1.8-5.7.5,0,1.9,7.9,8.7,9.8,8.3,2-.4,12.4-13.7,11.9-15.2a3.071,3.071,0,0,0-2.3-1.4C399.1-248,397.3-246.5,394.6-243Z" transform="translate(118.689 1415.185)" fill="#fff"/>
    </g>
    <g id="Group_3" data-name="Group 3" transform="translate(15 -3.615)">
      <text id="Review_Customise_your_Offers" data-name="Review &amp; Customise 
your Offers" transform="translate(846.75 1216.134)" fill="#fff" font-size="18" font-family="OpenSans-Semibold, Open Sans" font-weight="600"><tspan x="-89.991" y="0">Review &amp; Customise </tspan><tspan x="-49.32" y="24">your Offers</tspan></text>
      <g id="Group_2" data-name="Group 2" transform="translate(47.933 -1.951)">
        <path id="Path_238" data-name="Path 238" d="M188.953-285.325a5.23,5.23,0,0,1-2.792,1.675c-1.005,0-1.173.279-1.005,2.066l.168,2.122,6.869.167,6.813.168v-2.29c0-2.01-.168-2.234-1.34-2.234a1.614,1.614,0,0,1-1.731-1.173c-.391-1.173-2.345-2.178-4.3-2.178A4.855,4.855,0,0,0,188.953-285.325Zm4.356-.112c.112.391-.335.67-.949.67-1.173,0-1.508-.614-.782-1.34C192.08-286.609,193.029-286.218,193.308-285.436Z" transform="translate(604.592 1437.701)" fill="#fff"/>
        <path id="Path_240" data-name="Path 240" d="M171.893-278.1c-.782.782-.893,3.071-.893,18.987,0,15.692.112,18.2.893,18.931.726.726,2.457.893,9.94.893,7.93,0,9.326.112,11.224,1.117,2.457,1.284,3.965,1.4,6.254.5a8.413,8.413,0,0,0,5.193-10,6.881,6.881,0,0,0-1.061-2.513c-.279-.168-1.955,1.843-3.742,4.467s-3.406,4.747-3.686,4.747c-.223,0-1.173-1.564-2.122-3.518l-1.731-3.462,1.9,2.066a12.452,12.452,0,0,0,2.178,2.122,50.55,50.55,0,0,0,3.462-3.909c2.513-3.071,3.016-3.965,2.345-4.244-.782-.279-.894-2.01-.894-12.788,0-11.448-.056-12.453-1.061-13.346-.726-.67-1.787-.893-3.462-.782-3.406.223-3.462,1.452-.112,1.675l2.68.168.168,11.727.112,11.727h-3.071c-1.675,0-3.071-.167-3.071-.447,0-.223-3.127-.391-6.98-.391-9.1,0-9.493,1.061-.391,1.229l6.534.112-6.143.168c-8.041.279-9.214,1.284-1.452,1.284h5.7l-1.173,1.675c-1.117,1.564-1.4,1.619-5.752,1.843l-4.579.168,4.635.112c2.569.056,4.579.335,4.579.67s-1.955.614-4.579.67l-4.635.112,4.412.279,4.412.335.67,2.4.726,2.4-8.432-.167-8.488-.168v-35.74l2.96-.168c3.686-.223,3.686-1.452,0-1.675C173.569-278.934,172.564-278.71,171.893-278.1Zm27.531,25.464c.949.335,1.731.893,1.731,1.229,0,.391-1.117,1.9-2.513,3.462l-2.457,2.792L194.9-246.6a13.053,13.053,0,0,0-2.848-2.457c-1.284-.838-1.4-1.117-.838-1.843a9.468,9.468,0,0,1,5.249-2.345A11.651,11.651,0,0,1,199.424-252.632Zm-7.371,6.757a38,38,0,0,1,2.4,4.523c.893,2.457,2.178,1.675,5.528-3.127,3.239-4.747,4.132-4.97,4.077-1.061-.112,5.808-5.249,9.158-10.443,6.869-3.741-1.675-5.7-5.808-4.412-9.214C189.763-249.281,190.21-248.946,192.053-245.875Z" transform="translate(610.818 1434.102)" fill="#fff"/>
        <path id="Path_242" data-name="Path 242" d="M186.488-265.442c-.223.335,2.122.558,6.645.558,4.3,0,7.036-.223,7.036-.558S197.6-266,193.525-266C189.672-266,186.712-265.777,186.488-265.442Z" transform="translate(603.985 1428.428)" fill="#fff"/>
        <path id="Path_243" data-name="Path 243" d="M186.491-262.442c-.223.391,2.68.558,8.321.558,5.417,0,8.712-.223,8.712-.558S200.4-263,195.2-263C190.232-263,186.714-262.777,186.491-262.442Z" transform="translate(603.983 1427.103)" fill="#fff"/>
        <path id="Path_248" data-name="Path 248" d="M191.578-254.432c2.066.112,5.361.112,7.26,0s.223-.168-3.8-.168C191.076-254.6,189.512-254.544,191.578-254.432Z" transform="translate(602.134 1423.394)" fill="#fff"/>
        <path id="Path_249" data-name="Path 249" d="M192.9-251.432c2.569.112,6.59.112,8.935,0,2.345-.056.279-.168-4.635-.168S190.335-251.488,192.9-251.432Z" transform="translate(601.646 1422.069)" fill="#fff"/>
        <path id="Path_251" data-name="Path 251" d="M186-244.442c0,.335,2.68.558,6.98.558s6.98-.223,6.98-.558-2.68-.558-6.98-.558S186-244.777,186-244.442Z" transform="translate(604.194 1419.155)" fill="#fff"/>
        <path id="Path_252" data-name="Path 252" d="M186-241.442c0,.335,3.239.558,8.656.558s8.656-.223,8.656-.558-3.239-.558-8.656-.558S186-241.777,186-241.442Z" transform="translate(604.194 1417.83)" fill="#fff"/>
      </g>
    </g>
    <g id="Group_4" data-name="Group 4" transform="translate(-8.891 -2.04)">
      <path id="Path_239" data-name="Path 239" d="M723.441-275.066c.336.589.084,2.1-.589,3.448-1.346,2.691-.42,5.719,1.85,5.719.673,0,1.093.252.841.673-.168.336.5,2.691,1.682,5.214,2.439,5.719,2.523,9.251.336,11.942l-.8,1.178-.547,1.26c.421.421-1.093.5-9.756.757-8.326.252-10.765-1.093-10.765-5.719,0-3.785,2.271-9,6.224-14.129,2.943-3.785,2.943-3.953,1.766-6.812-1.6-3.7-1.6-3.532.673-4.457C716.713-277.085,722.6-276.412,723.441-275.066Z" transform="translate(489.477 1442.087)" fill="#fff"/>
    </g>
  </g>
</svg>
