<svg xmlns="http://www.w3.org/2000/svg" width="63.442" height="68.561" viewBox="0 0 63.442 68.561">
  <g id="Group_14" data-name="Group 14" transform="translate(-651.279 -352.094)">
    <circle id="Ellipse_6" data-name="Ellipse 6" cx="18.792" cy="18.792" r="18.792" transform="translate(664.208 370.145)" fill="#b1d363"/>
    <g id="Group_13" data-name="Group 13">
      <path id="Path_17" data-name="Path 17" d="M690.515,358.145c-.62-.174-1.265-.3-1.947-.436-.339-.065-.688-.134-1.05-.212l-.694-.148,1.153-1.133c.445-.434.866-.844,1.271-1.269a1.786,1.786,0,0,0,.519-1.278,1.544,1.544,0,0,0-.49-1.09,2.916,2.916,0,0,0-.526-.36l-.208-.125h-.854c-.083.056-.169.108-.253.162a3.677,3.677,0,0,0-.63.458c-1.641,1.61-3.263,3.24-4.883,4.871a1.664,1.664,0,0,0-.024,2.57q2.448,2.475,4.924,4.928a1.921,1.921,0,0,0,1.333.6h.014a1.568,1.568,0,0,0,1.123-.494,1.686,1.686,0,0,0-.11-2.433c-.188-.2-.379-.389-.621-.635l-1.124-1.139,1.5.226c.182.026.3.044.419.069a28.394,28.394,0,0,1-3.518,55.918,28.414,28.414,0,0,1-30.22-35.83,27.778,27.778,0,0,1,17.415-19.009c1.174-.459,1.709-1.374,1.362-2.328a1.443,1.443,0,0,0-.748-.862,1.675,1.675,0,0,0-.716-.146,3.149,3.149,0,0,0-1.1.225,31.9,31.9,0,0,0-19.785,36.732,31.775,31.775,0,0,0,57.482,10.4,30.861,30.861,0,0,0,4.505-23.586C711.327,370.038,703.414,361.747,690.515,358.145Z" fill="#2c3179"/>
      <path id="Path_18" data-name="Path 18" d="M668.491,403.421a20.323,20.323,0,0,0,14.461,5.989H683a20.473,20.473,0,0,0-.027-40.946h-.006a20.478,20.478,0,0,0-14.475,34.957Zm14.481-31.658h.006a17.161,17.161,0,0,1,12.088,29.347,17.2,17.2,0,0,1-12.179,5h-.031a17.175,17.175,0,0,1,.116-34.35Z" fill="#2c3179"/>
      <path id="Path_19" data-name="Path 19" d="M677.485,397.8c.739.413,1.538.766,2.311,1.109.25.11.5.221.748.333l.495-.714.138,1.132c.007.1.014.193.018.29a1.729,1.729,0,0,0,1.661,1.851h.006a1.546,1.546,0,0,0,1.128-.452,1.93,1.93,0,0,0,.5-1.4,1.167,1.167,0,0,1,.872-1.215,6.514,6.514,0,0,0,3.984-6.079,5.853,5.853,0,0,0-4.1-5.416c-1.227-.482-2.444-1.034-3.621-1.568l-.1-.048a1.585,1.585,0,0,1-1.086-1.781,2.136,2.136,0,0,1,1.521-1.911,3.905,3.905,0,0,1,3.344.516,1.646,1.646,0,0,0,2.331-.426,1.621,1.621,0,0,0,.24-1.25,1.73,1.73,0,0,0-.8-1.1,10.953,10.953,0,0,0-1.872-.9.966.966,0,0,1-.709-.951,1.657,1.657,0,0,0-1.622-1.752h-.052a1.7,1.7,0,0,0-1.618,1.834.965.965,0,0,1-.642,1,5.313,5.313,0,0,0-3.416,4.7,4.73,4.73,0,0,0,2.946,5.008c1.07.521,2.2.985,3.288,1.434l.9.372a2.487,2.487,0,0,1,1.682,1.821,3.1,3.1,0,0,1-2.344,3.571,5.633,5.633,0,0,1-4.359-.784,1.822,1.822,0,0,0-1.374-.3,1.6,1.6,0,0,0-1.01.708,1.648,1.648,0,0,0-.244,1.3A1.71,1.71,0,0,0,677.485,397.8Z" fill="#2c3179"/>
    </g>
  </g>
</svg>
